<svg xmlns="http://www.w3.org/2000/svg" width="112" height="116" viewBox="0 0 112 116">
  <title>AI</title>
  <path d="M99.6,84c-2.157,3.561-3.856,6.362-3.835,7.86V115.4a1.711,1.711,0,0,1-.126.6H88.482a2.262,2.262,0,0,1-.076-.583V91.856c0-2.866,2.288-7.144,5.229-12.573,4.619-8.6,10.958-20.348,11-32.377C104.745,26.733,82.742,9.925,63.308,8.47V40.8c8.279,1.455,14.423,9.316,14.423,18.7,0,9.881-7.582,17.307-17.647,17.307a18,18,0,0,1-10.2-3.149L42.11,79.153a6.4,6.4,0,1,1-4.553-5.82l7.124-5.016a17.712,17.712,0,0,1-2.745-9.511A18.51,18.51,0,0,1,55.879,41.151V8.578c-17.451,1.3-29.237,10.293-34.138,26.058-1.351,4.408-5.752,12.269-9.281,18.589-2.31,4.148-4.924,8.838-5.1,9.815.545,1.173,6.623,4.191,12,6.341L20,69.62V84.668c0,.13.087,3.214,3.333,6.515,3.029,3.1,10.065,3.3,10.131,3.3h8.191V115.4l-.065.174a3.609,3.609,0,0,1-.21.431H34.512a2.668,2.668,0,0,1-.223-.626l-.022-13.528a25.744,25.744,0,0,1-13.965-3.8,16.293,16.293,0,0,1-7.669-13.42V74.549C9.846,73.572.608,69.989.02,64.973-.241,62.5,2.089,57.807,6.25,49.75A178.751,178.751,0,0,0,14.529,32.2C20.346,16.787,30.346,1,60.541,1,91.935,1,112,28.188,112,46.906,112,63.6,104.527,75.874,99.6,84Zm-39.5-35.852A10.684,10.684,0,1,0,70.846,58.828,10.759,10.759,0,0,0,60.106,48.144Z" style="fill: #f0f0f4;fill-rule: evenodd"/>
</svg>
