<svg xmlns="http://www.w3.org/2000/svg" xmlns:xlink="http://www.w3.org/1999/xlink" preserveAspectRatio="xMidYMid" width="14" height="14" viewBox="0 0 14 14">
  <defs>
    <style>
      .cls-1 {
        fill: #ffffff;
        fill-rule: evenodd;
      }
    </style>
  </defs>
  <path d="M12.723,13.000 C12.376,13.595 11.738,14.000 11.000,14.000 C10.262,14.000 9.624,13.595 9.277,13.000 L-0.000,13.000 L-0.000,11.000 L9.277,11.000 C9.624,10.405 10.262,10.000 11.000,10.000 C11.738,10.000 12.376,10.405 12.723,11.000 L14.000,11.000 L14.000,13.000 L12.723,13.000 ZM3.000,9.000 C2.262,9.000 1.624,8.595 1.277,8.000 L-0.000,8.000 L-0.000,6.000 L1.277,6.000 C1.624,5.405 2.262,5.000 3.000,5.000 C3.738,5.000 4.376,5.405 4.723,6.000 L14.000,6.000 L14.000,8.000 L4.723,8.000 C4.376,8.595 3.738,9.000 3.000,9.000 ZM8.000,4.000 C7.262,4.000 6.624,3.595 6.277,3.000 L-0.000,3.000 L-0.000,1.000 L6.277,1.000 C6.624,0.405 7.262,-0.000 8.000,-0.000 C8.738,-0.000 9.376,0.405 9.723,1.000 L14.000,1.000 L14.000,3.000 L9.723,3.000 C9.376,3.595 8.738,4.000 8.000,4.000 Z" class="cls-1"/>
</svg>
