<svg xmlns="http://www.w3.org/2000/svg" width="16" height="16" viewBox="0 0 16 16">
  <title>gengxin</title>
  <path d="M8,16a8,8,0,1,1,8-8A8,8,0,0,1,8,16ZM12.374,3.715a.427.427,0,0,0-.426-.429.411.411,0,0,0-.087.017V3.286l-.022.022a.414.414,0,0,0-.253.2l-.454.464A5.126,5.126,0,0,0,7.971,3,4.808,4.808,0,0,0,3,8.006c0,.014,0,.027,0,.041l0,.02a.513.513,0,0,0,.006.061h0V8.15a.631.631,0,0,0,.612.48.646.646,0,0,0,.611-.5c0-.028.006-.055.008-.083s0-.046-.006-.069A3.654,3.654,0,0,1,7.971,4.231a3.719,3.719,0,0,1,2.262.625l-.554.554a.407.407,0,0,0-.146.308.4.4,0,0,0,.417.4h1.989a.412.412,0,0,0,.435-.4ZM13,8.112a.253.253,0,0,0-.01-.053A.631.631,0,0,0,13,7.953a.625.625,0,0,0-.617-.581.657.657,0,0,0-.641.593A3.759,3.759,0,0,1,8,11.766a3.443,3.443,0,0,1-2.165-.742l.532-.547a.489.489,0,0,0,.1-.29c0-.246-.186-.316-.421-.316H4.051c-.236,0-.426.07-.426.316v2.073a.435.435,0,0,0,.426.444.426.426,0,0,0,.395-.279l.455-.479A4.951,4.951,0,0,0,8.027,13a4.936,4.936,0,0,0,4.961-4.582A1.817,1.817,0,0,0,13,8.112Z" style="fill: #6a7183"/>
</svg>
