<svg xmlns="http://www.w3.org/2000/svg" width="100" height="20" viewBox="0 0 100 20">
  <title>guanlikongzhitai</title>
  <path d="M12.393,1.694H10.528A4.583,4.583,0,0,1,10.1,3.54a1.238,1.238,0,0,1-.8.469V5.776H8.282v.537H1.808a1.628,1.628,0,0,0-1.211.5,1.6,1.6,0,0,0-.43,1.172V9.37H1.5a2.207,2.207,0,0,0-.283.42,2.718,2.718,0,0,0-.137.986v5.967a1.561,1.561,0,0,0,.723,1.387,2.666,2.666,0,0,0,1.279.205H15.714q1.084,0,1.367-.381a1.546,1.546,0,0,0,.176-.85V15.22a2.039,2.039,0,0,0-.088-.732.9.9,0,0,0-.361-.381,7.2,7.2,0,0,0-2.451-.215H2.95v-.8H15.587a2.014,2.014,0,0,0,1.406-.352,1.453,1.453,0,0,0,.264-1.016V10.61a7.985,7.985,0,0,0-.078-1.24h1.035V8.13q0-1.816-1.914-1.816H10.089V5.776H9.874a2.738,2.738,0,0,0,2.031-1.66h1.953V5.835h1.807V4.116h2.549V2.378H12.325Zm2.481,13.8a.4.4,0,0,1,.459.449v.322a.465.465,0,0,1-.185.439,2.983,2.983,0,0,1-.693.039H3.9a2.346,2.346,0,0,1-.8-.068q-.147-.107-.147-.478v-.7Zm.459-4.395a.321.321,0,0,1-.146.312,1.722,1.722,0,0,1-.576.059H2.95v-.42a.648.648,0,0,1,.078-.381q.107-.137.723-.137H14.61a1.44,1.44,0,0,1,.547.059.38.38,0,0,1,.176.352Zm.576-3.115a.537.537,0,0,1,.205.1.6.6,0,0,1,.254.508l.01.254H2.755a3.614,3.614,0,0,0-.781.127l-.01-.312a.608.608,0,0,1,.3-.566,2.159,2.159,0,0,1,.908-.107ZM2.813,4.116H4.737V5.835H6.544V4.116H9.112V2.378h-5.9l.078-.684H1.417A4.186,4.186,0,0,1,.968,3.56a1.252,1.252,0,0,1-.8.459V5.835a3.6,3.6,0,0,0,1.592-.459A3.128,3.128,0,0,0,2.813,4.116ZM33.365,14.468h4.7V12.661h-4.7V11.069l3.115-.01a1.546,1.546,0,0,0,1.152-.469,1.789,1.789,0,0,0,.479-1.309V3.53a1.705,1.705,0,0,0-.449-1.289,2.449,2.449,0,0,0-1.709-.488h-7.51a1.7,1.7,0,0,0-1.26.469,2.015,2.015,0,0,0-.5,1.484V9a5.885,5.885,0,0,0,.029.664,1.57,1.57,0,0,0,.352.8,1.626,1.626,0,0,0,1.328.6l3.164.01v1.592H26.871v1.807h4.688v2.09H26.383v1.807H38.424V16.558H33.365Zm0-10.908,2-.02q.986,0,.977.771V5.493H33.365Zm0,3.73h2.979V8.4a.94.94,0,0,1-.166.654.85.85,0,0,1-.635.176H33.365ZM31.558,9.233H29.2a.688.688,0,0,1-.547-.176,1.113,1.113,0,0,1-.156-.7V7.29h3.066Zm0-3.74H28.492V4.312a.793.793,0,0,1,.146-.557.826.826,0,0,1,.605-.2h2.315ZM20.377,4.048h1.592V8.657H20.377l-.01,1.777,1.6-.01V16.06H20.377v1.807h5.059V16.06h-1.66V10.425h1.66V8.657h-1.66V4.048h1.66V2.241H20.377ZM47.334,12.72h4.688v3.8H47.334v1.807H58.516V16.519H53.829v-3.8h4.688V10.913H47.334Zm8.74-6.807h-2v.1a2.607,2.607,0,0,0,.332.84,5.43,5.43,0,0,0,1.25,1.719A5.208,5.208,0,0,0,58.633,9.7V7.9a3.683,3.683,0,0,1-1.709-.635A2.724,2.724,0,0,1,56.075,5.913Zm-4.356,0H49.708a2.872,2.872,0,0,1-.82,1.328,3.6,3.6,0,0,1-1.709.635V9.712a5.5,5.5,0,0,0,2.813-1.025A5.319,5.319,0,0,0,51.719,5.913Zm-6.748-.244h1.621V3.774H44.971V1.782H43.165V3.774H40.528V5.669h2.637V9.8a11.881,11.881,0,0,1-1.192.6,11.5,11.5,0,0,1-1.445.342v1.895a11.931,11.931,0,0,0,1.309-.225,11.321,11.321,0,0,0,1.328-.508v3.623a.9.9,0,0,1-.352.713,1.628,1.628,0,0,1-1.064.283h-.3v1.807h.732a3.256,3.256,0,0,0,1.768-.449,2.334,2.334,0,0,0,1.025-2.129v-5.01A8.779,8.779,0,0,1,46.69,9.9V8.062a9.478,9.478,0,0,0-1.719.625Zm3.955-.361a.924.924,0,0,1,.166-.644.982.982,0,0,1,.625-.127h6.309q.713,0,.713.518v.732h1.777V4.78a2.2,2.2,0,0,0-.479-1.592,1.757,1.757,0,0,0-1.3-.459h-3V1.782H51.924V2.73H48.653A1.457,1.457,0,0,0,47.6,3.2a2.267,2.267,0,0,0-.488,1.641v.947h1.816Zm28.012,9.727a2.727,2.727,0,0,1-.1.889,1.049,1.049,0,0,1-1.113.615h-2.07v1.807h2.188a5.065,5.065,0,0,0,1.064-.078,2.3,2.3,0,0,0,1.436-.986,3.577,3.577,0,0,0,.43-2.012V1.763H76.939ZM75.464,2.505H73.628V15.464h1.836Zm-3.428,8.281a1.816,1.816,0,0,0-1.641-.742H67.554V8.687h4.707V6.909H67.554V4.888h4.6V3.052h-4.6V1.773H65.747V3.052H63.726a13.214,13.214,0,0,0,.391-1.279h-1.9a6.736,6.736,0,0,1-.439,1.074,4.27,4.27,0,0,1-.791.967,2.7,2.7,0,0,1-.2.2V6.069a6.577,6.577,0,0,0,1.729-1.182h3.232V6.909H60.786V8.687h4.961v1.357H63.062a2.353,2.353,0,0,0-1.543.41,1.774,1.774,0,0,0-.547,1.4v6.406h1.807V12.573a.882.882,0,0,1,.127-.557.974.974,0,0,1,.693-.166h2.148v6.494h1.807V11.851H69.81q.449,0,.586.215a1.582,1.582,0,0,1,.1.7V15.7q0,.576-.664.576h-.8v1.8h1.6a1.6,1.6,0,0,0,1.221-.508,1.665,1.665,0,0,0,.439-1.2V12.036a6.227,6.227,0,0,0-.019-.654A1.334,1.334,0,0,0,72.036,10.786ZM81.709,8.6a3.725,3.725,0,0,0,2.07.42H95.488a4.749,4.749,0,0,0,2.344-.449,1.959,1.959,0,0,0,1.1-1.709,7.785,7.785,0,0,0-.439-1.8q-.293-1-.44-1.465H96.2l.752,2.334a1.188,1.188,0,0,1,.068.371q0,.879-1.143.879H84.053q-.889,0-.889-.586a1.225,1.225,0,0,1,.088-.449l1.641-4.355H82.764L81.27,5.933a3.991,3.991,0,0,0-.264,1.279A1.6,1.6,0,0,0,81.709,8.6Zm16.465,2.383a2.633,2.633,0,0,0-1.67-.43H83.32q-2.031,0-2.031,1.934v3.74a2.8,2.8,0,0,0,.224,1.387,2.126,2.126,0,0,0,1.856.752H96.69a3.612,3.612,0,0,0,.84-.068,1.6,1.6,0,0,0,.869-.566,1.81,1.81,0,0,0,.322-1.172V12.485a3.364,3.364,0,0,0-.068-.811A1.446,1.446,0,0,0,98.174,10.982Zm-1.26,4.883a.851.851,0,0,1-.088.469.608.608,0,0,1-.518.2H83.73q-.635,0-.635-.488V12.915q0-.527.557-.527H96.338a.505.505,0,0,1,.576.566Z" style="fill: #fff"/>
</svg>
