<svg xmlns="http://www.w3.org/2000/svg" width="112" height="116" viewBox="0 0 112 116">
  <title>guanjia</title>
  <path d="M18.214,38.1A37.788,37.788,0,1,1,56,76.207,37.989,37.989,0,0,1,18.214,38.1ZM56,69.49A31.387,31.387,0,1,0,24.875,38.1,31.292,31.292,0,0,0,56,69.49ZM75.986,81.423v16.9a2.331,2.331,0,0,1-3.18,2.186L56,93.853l-16.8,6.657a2.331,2.331,0,0,1-3.18-2.186v-16.9a2.331,2.331,0,0,1,3.18-2.186L56,85.895l16.805-6.657h0A2.331,2.331,0,0,1,75.986,81.423Zm-65.7,7.8,13.871-3.105A3.357,3.357,0,0,1,25.6,92.672L11.724,95.777a6.467,6.467,0,0,0-5.063,6.362v13.788c0,.025.007.049.007.073H0c0-.025,0-.049,0-.073V102.14A13.132,13.132,0,0,1,10.281,89.22Zm95.06,26.708V102.14a6.468,6.468,0,0,0-5.063-6.362L86.407,92.672a3.357,3.357,0,0,1,1.444-6.558l13.871,3.105A13.132,13.132,0,0,1,112,102.14v13.788c0,.025,0,.049,0,.073h-6.665C105.334,115.977,105.341,115.953,105.341,115.928Z" style="fill: #f0f0f4;fill-rule: evenodd"/>
</svg>
