<svg xmlns="http://www.w3.org/2000/svg" width="32" height="14" viewBox="0 0 32 14">
  <title>hot</title>
  <path d="M3,14V8.905L0,7,3,5.017V0H31V14ZM12.327,2.041H11.155V5.984H6.562V2.041H5.39v9.076H6.562V7.027h4.594v4.09h1.172ZM21.544,3.16A3.918,3.918,0,0,0,18.5,1.889a4.151,4.151,0,0,0-3.223,1.3,4.984,4.984,0,0,0-1.189,3.5A4.706,4.706,0,0,0,15.251,10a4,4,0,0,0,3.1,1.271,4.078,4.078,0,0,0,3.164-1.295,5,5,0,0,0,1.184-3.5A4.735,4.735,0,0,0,21.544,3.16Zm8.391-1.119h-6.4V3.084h2.607v8.033h1.178V3.084h2.619ZM18.351,10.226a2.738,2.738,0,0,1-2.194-.993,3.949,3.949,0,0,1-.841-2.64,3.926,3.926,0,0,1,.861-2.642,2.818,2.818,0,0,1,2.25-1.008A2.764,2.764,0,0,1,20.65,3.9a4.072,4.072,0,0,1,.811,2.713,3.925,3.925,0,0,1-.829,2.663A2.868,2.868,0,0,1,18.351,10.226Z" style="fill: #ff8932;fill-rule: evenodd"/>
</svg>
