<?xml version="1.0" encoding="utf-8"?>
<!-- Generator: Adobe Illustrator 16.0.0, SVG Export Plug-In . SVG Version: 6.00 Build 0)  -->
<!DOCTYPE svg PUBLIC "-//W3C//DTD SVG 1.1//EN" "http://www.w3.org/Graphics/SVG/1.1/DTD/svg11.dtd">
<svg version="1.1" id="图层_1" xmlns="http://www.w3.org/2000/svg" xmlns:xlink="http://www.w3.org/1999/xlink" x="0px" y="0px"
	 width="136px" height="27px" viewBox="0 0 2499.08 500.415" enable-background="new 0 0 2499.08 500.415"
	 xml:space="preserve" fill="#fff">
<g>
	<defs>
		<rect id="SVGID_1_" x="-0.003" width="2499.085" height="500.415"/>
	</defs>
	<clipPath id="SVGID_2_">
		<use xlink:href="#SVGID_1_"  overflow="visible"/>
	</clipPath>
	<path clip-path="url(#SVGID_2_)" d="M1056.563,36.548h-20.885l-10.021,29.493h20.629L1056.563,36.548z M959.211,66.041
		l-10.074-29.493h-20.79l10.207,29.493H959.211z M845.11,226.292v-10.293h44.48v57.977c0,0-1.014,6.018-6.827,6.018h-8.608
		l-5.351,15.539l20.786,0.229c10.297,0,21.152-3.656,21.152-18.396V55.458c0-10.303-8.317-18.581-18.615-18.581h-49.845
		c-10.316,0-18.324,8.278-18.324,18.581v168.297c0,28.949-3.585,46.222-15.359,72.006h22.315
		C840.63,276.565,845.11,255.218,845.11,226.292 M845.11,64.584c0-4.433,1.933-6.46,6.37-6.46h31.725
		c4.199,0,6.385,2.027,6.385,6.46v52.56h-44.48V64.584z M845.11,138.142h44.48v56.786h-44.48V138.142z M1037.382,247.458H930.213
		l-5.58,15.854h107.17L1037.382,247.458z M1050.969,213.714h-11.13v-32.936c0-10.072-8.299-18.646-18.276-18.646h-61.104
		l-10.964,19.157h58.662c5.902,0,10.54,4.765,10.54,10.597v21.324h-37.457c-5.851,0-10.55-4.766-10.55-10.594v-14.387h-21.167
		v26.113c0,10.283,8.336,18.614,18.663,18.614h69.735c5.514,0,10.588,4.685,10.588,10.606v22.758
		c0,5.826-5.074,10.492-10.588,10.492h-22.785l-5.578,18.681h41.412c10.283,0,18.705-8.36,18.705-18.299v-45.19
		C1069.674,221.698,1061.252,213.714,1050.969,213.714 M1070.85,132.944v-15.801h-96.91c4.109-8.628,8.327-16.939,12.236-25.865
		h77.885V75.444h-70.954c5.818-14.141,11.37-28.604,16.977-43.08h-21.947c-4.999,15.048-10.326,29.207-16.177,43.08h-45.861v15.834
		h38.896c-4.113,8.926-8.317,17.237-12.85,25.865h-33.053v15.801h24.499c-7.246,13.076-15.244,25.888-23.971,39.189h22.023
		c8.941-12.83,16.753-25.827,24.199-39.189h57.891c8.07,13.362,16.716,26.146,25.59,39.189h22.275
		c-9.217-13.044-17.814-25.827-26.447-39.189H1070.85z M1179.338,275.366h-15.572c-5.836,0-10.559-4.686-10.559-10.512V117.881
		c0-10.241-8.369-18.601-18.668-18.601h-33.906l-5.584,20.895h26.389c5.885,0,10.594,4.666,10.594,10.488V277.67
		c0,10.265,8.121,18.3,18.342,18.3h23.381L1179.338,275.366z M1359.318,275.118h-19.186c-5.914,0-10.631-4.666-10.631-10.492V61.885
		c0-9.993-8.299-18.362-18.643-18.362h-133.564l-3.217,21.1l46.621-0.2v92.754h-42.594l-3.219,20.995l45.813-0.2v117.79h21.1
		v-117.79h48.775l5.588-20.795h-54.363V64.422h56.006c5.885,0,10.598,4.761,10.598,10.588v202.45
		c0,10.265,8.307,18.301,18.338,18.301h26.998L1359.318,275.118z M1148.445,83.122l-11.141-49.902h-21.076l11.094,49.902H1148.445z
		 M1390.711,31.882l23.137,58.577h21.643l-23.07-58.577H1390.711z M1380.104,295.494h21.977
		c14.016-31.935,25.078-66.384,31.734-105.626h-20.795C1406.535,226.577,1395.186,261.616,1380.104,295.494 M1390.473,107.14
		l23.375,58.881h21.434l-23.146-58.881H1390.473z M1443.307,295.761h21.404c9.809-31.688,15.578-73.059,15.578-112.296V140.86
		h26.773c2.762,0,5.285,2.523,5.285,5.289v123.484c0,2.762-2.523,5.275-5.285,5.275h-12.52l-5.58,20.852h25.842
		c10.006,0,18.414-8.341,18.414-18.396V138.813c0-10.045-8.408-18.619-18.414-18.619h-34.516V89.383h53.957l5.58-21.119h-38.037
		l-11.16-36.382h-20.928l11.168,36.382h-33.344l-5.58,21.119h17.814v93.325C1459.76,221.788,1454.467,258.208,1443.307,295.761
		 M1581.32,279.879h-16.156l-5.58,15.882h29.498c10.055,0,18.404-8.341,18.404-18.396v-58.738h35.934v-20.979h-35.934v-3.881
		c0-3.898,0-6.375,1.924-9.984l25.889-45.53c4.16-9.198,0.828-18.638-10.77-18.638h-71.145l-5.465,20.685h57.576
		c3.609,0,5.084,2.218,3.391,5.613l-18.367,32.03c-3.057,5.317-3.904,9.717-3.904,15.029v4.676h-36.754v20.979h36.754v55.996
		C1586.615,277.365,1584.158,279.879,1581.32,279.879 M1572.229,81.037h63.908l7.283-21.095h-67.631
		c1.352-8.945,2.219-18.362,3.057-28.061h-20.652c-2.467,27.189-7.484,51.939-14.977,76.91h20.852
		C1566.182,103.998,1568.744,93.323,1572.229,81.037 M1912.426,86.036l-14.168-46.612h-21.746l14.244,46.612H1912.426z
		 M1885.1,197.19c-8.588-24.467-15.234-48.865-21.08-74.455l65.717-7.641V95.924l-69.678,8.149
		c-4.723-23.283-7.98-44.383-11.922-71.315h-21.1c4.17,28.289,7.656,50.198,12.473,73.563l-44.051,4.979v19.172l48.012-5.274
		c6.895,32.283,15.254,60.623,25.252,88.074c-22.527,21.342-46.18,40.556-69.787,58.057v21.938
		c26.389-18.567,53.143-38.334,77.576-60.853c8.588,21.167,18.604,41.733,30.354,63.347h21.938
		c-14.738-27.993-26.641-53.549-36.371-78.6c13.043-13.282,26.869-27.313,37.914-42.676v-25.508
		C1916.215,166.178,1900.219,182.127,1885.1,197.19 M1689.543,295.761c13.91-24.87,26.137-49.15,37.229-73.844l27.85,60.285h23.977
		l-40.41-86.646c15.082-37.315,27.869-76.743,39.838-123.384c1.4-8.665-3.066-14.702-12.492-14.702h-89.045l-6.322,21.248h76.533
		c4.133,0,6.381,3.608,5.59,6.375c-7.445,31.093-15.178,55.362-25.994,84.617l-32.297-69.783h-23.404l44.838,97.263
		c-13.949,32.777-30.336,65.035-48.73,98.57H1689.543z M2000.08,226.502v-10.545h44.484v58.209c0,0-1.027,6.036-6.836,6.036h-8.607
		l-5.352,15.539l20.795,0.229c10.283,0,21.139-3.675,21.139-18.395V55.653c0-10.303-8.322-18.582-18.605-18.582h-49.854
		c-10.303,0-18.32,8.279-18.32,18.582v168.302c0,28.959-3.58,46.212-15.348,72.015h22.299
		C1995.605,276.774,2000.08,255.428,2000.08,226.502 M2000.08,64.778c0-4.422,1.924-6.45,6.381-6.45h31.705
		c4.209,0,6.398,2.028,6.398,6.45v52.56h-44.484V64.778z M2000.08,138.342h44.484v56.791h-44.484V138.342z M2175.543,238.08
		c14.264-26.541,27.078-54.673,37.496-81.681c0,0,3.693-8.103,0.305-14.14c-3.391-6.017-12.436-4.864-12.436-4.864h-88.797V57.442
		h71.41c0,0,8.723-0.476,8.723,8.979v19.114c0,7.798-8.59,8.141-8.59,8.141h-18.186l-11.387,19.291h40.408
		c0,0,19.158-0.305,19.158-19.109V56.786c-1.658-17.025-16.568-17.819-16.568-17.819h-106.297V295.97h21.328l-0.229-147.32
		c12.34,32.629,23.879,58.076,40.561,88.192c-11.445,20.356-24.336,41.495-38.182,59.128h24.566
		c10.016-12.473,17.367-25.155,25.955-39.266c8.588,13.559,15.824,25.975,27.27,39.266h24.984
		C2199.879,277.251,2186.988,257.332,2175.543,238.08 M2164.307,217.218c-12.396-24.427-15.824-33.839-27.744-59.342h46.197
		c0,0,3.98-0.296,5.523,2.48c0.895,1.594-0.496,4.855-0.496,4.855C2180.607,184.45,2175.791,194.7,2164.307,217.218
		 M2350.395,203.36h101.385c5.713,0,10.207,4.432,10.207,10.092v52.887c0,5.656-4.494,10.112-10.207,10.112h-52.406l-8.816,17.977
		h61.223c16.531,0,29.975-13.692,29.975-30.507v-48.05c0-16.948-13.158-30.218-29.975-30.218h-93.576
		c2.094-6.164,4.094-12.791,5.922-19.779l1.334-5.467h-20.129l-0.209,0.197c-2.324,8.201-4.857,16.866-7.865,25.049h-78.152
		l-9.922,17.707h79.639c-11.084,35.558-51.398,72.539-77.658,90.857l-2.514,1.733l28.26,0.019l2.609-1.828
		C2310.9,272.147,2334.094,240.803,2350.395,203.36 M2408.857,127.616c22.299-11.541,40.732-24.771,55.092-39.52
		c0,0,9.064-7.684,5.654-17.891c-3.428-10.211-16.414-8.821-16.414-8.821H2304.75l17.785-27.427h-24.395l-29.307,45.408h158.342
		c0,0,14.379-0.904,2.705,7.632c-14.436,10.554-31.041,23.112-50.541,31.354l-110.162-33.764l-0.268,21.271l78.742,24.231
		c-28.982,9.056-57.375,15.015-92.662,17.738l-1.543,0.239l-4.133,20.065l3.047-0.205c46.617-3.104,91.064-12.673,128.637-27.698
		l118.084,35.949v-20.951L2408.857,127.616z M898.364,359.841h-91.107v16.854h34.873v85.786h21.851v-85.786h34.383V359.841z
		 M1036.968,390.899h-0.028c-9.846,0.63-17.806,4.779-23.371,11.578l-1.67,1.6l-22.052-10.873v71.582h20.876v-39.896
		c0.694-11.938,6.197-18.338,17.224-19.062c4.475,0,7.993,1.274,10.464,3.789c2.98,3.028,4.404,7.885,4.218,14.396v40.772h20.896
		v-44.617c0.158-10.379-2.19-18.053-6.961-22.871C1052.326,393.07,1046.009,390.899,1036.968,390.899 M1297.805,390.899h-0.033
		c-9.846,0.63-17.805,4.779-23.381,11.578l-1.518,1.447l-22.189-10.721v71.582h20.871v-39.896
		c0.676-11.938,6.188-18.338,17.215-19.062c4.479,0,8.008,1.274,10.479,3.789c2.975,3.028,4.398,7.885,4.203,14.396v40.772h20.898
		v-44.617c0.148-10.379-2.193-18.053-6.969-22.871C1313.162,393.07,1306.836,390.899,1297.805,390.899 M1092.654,400.269
		c-8.799,7.352-13.312,16.415-13.393,26.984c-0.113,10.587,4.152,19.576,12.693,26.736c8.607,7.159,19.538,10.797,32.492,10.797
		c7.893,0,16.016-1.696,23.557-4.912v-18.358c-3.781,3.541-7.6,6.323-10.961,7.959c-3.859,1.867-8.35,2.819-13.338,2.819
		c-7.848,0-14.374-2.399-19.439-7.121c-5.033-4.723-7.531-10.836-7.459-18.168c0.065-7.18,2.766-13.235,8.055-18.014
		c5.261-4.762,11.896-7.161,19.723-7.161c4.99,0,9.404,0.99,13.117,2.895c3.223,1.58,6.736,4.207,10.303,7.635v-18.433
		c-7.07-3.16-14.684-4.76-22.648-4.76C1112.53,389.167,1101.533,392.918,1092.654,400.269 M2011.621,408.551
		c-6.361-3.464-14.721-6.321-24.795-8.473c-14.225-3.104-20.775-7.846-19.994-14.454c0.723-7.179,6.246-11.006,16.434-11.35
		c11.787,0,18.871,5.066,20.986,15.102l20.871-3.789c-4.305-18.301-17.578-27.213-40.582-27.213l-2.189,0.02
		c-23.613,1.275-36.01,10.111-37.877,26.945c-0.609,15.653,8.361,25.212,27.385,29.23c6.17,0.952,13.426,2.895,21.613,5.827
		c8.342,3.447,12.379,8.416,12.035,14.834c-0.705,9.104-6.875,13.902-18.377,14.244c-14.49,0-23.021-7.332-25.422-21.765
		l-20.814,4.188c5.275,21.861,20.225,32.486,45.666,32.486h1.01c26.488-0.627,39.818-10.529,40.752-30.181
		C2028.018,423.139,2022.533,414.721,2011.621,408.551 M2153.168,402.573l-1.277-0.837l-17.156-11.065v71.316h18.434v-29.783
		c0.037-0.248,3.809-23.024,28.393-23.862v-19.956C2164.688,389.167,2153.357,402.059,2153.168,402.573 M2235.129,439.63l-2,6
		h-0.305l-19.348-56.082h-18.832l27.459,72.439h20.965l28.432-72.439h-18.967L2235.129,439.63z M2284.564,385.015h21.441
		l-21.441-16.967V385.015z M2284.564,462.48h21.346v-65.412h-21.346V462.48z M2335.371,400.269
		c-8.836,7.352-13.33,16.415-13.426,26.984c-0.094,10.587,4.15,19.576,12.701,26.736c8.607,7.159,19.557,10.797,32.488,10.797
		c7.787,0,16.109-1.752,23.574-4.912v-18.358c-3.809,3.562-7.617,6.323-10.969,7.959c-3.865,1.867-8.34,2.819-13.35,2.819
		c-7.826,0-14.377-2.399-19.424-7.121c-5.027-4.706-7.541-10.817-7.482-18.168c0.076-7.18,2.799-13.235,8.074-18.014
		c5.256-4.762,11.9-7.161,19.709-7.161c5.008,0,9.426,0.99,13.121,2.895c3.217,1.58,6.74,4.207,10.32,7.635v-18.433
		c-7.064-3.16-14.701-4.76-22.66-4.76C2355.232,389.167,2344.227,392.918,2335.371,400.269 M2443.936,388.233
		c-12.131,0-22.033,4.438-29.365,11.293c-7.275,6.969-11.025,16.204-11.16,27.497c-0.094,11.388,3.6,20.623,10.951,27.479
		c7.426,6.818,17.5,10.283,29.916,10.283c17.652,0,29.688-9.787,33.934-13.883l-7.959-3.181c-4.17,1.752-10.893,4.799-20.262,4.799
		c-1.619,0-3.314-0.075-5.008-0.248c-16.758-1.616-23.176-14.967-23.652-21.192l-0.113-1.506h61.889l0.096-2.647
		c0.096-11.767-3.371-21.099-10.264-27.688C2465.91,392.556,2456.18,388.233,2443.936,388.233 M2422.283,418.378l0.57-1.846
		c0.705-2.248,1.732-4.324,3.066-6.113c1.352-1.791,2.971-3.332,4.818-4.59c1.922-1.314,3.979-2.285,6.246-2.951
		c2.303-0.686,4.723-1.048,7.254-1.048c11.273,0,18.473,4.952,21.311,14.739l0.533,1.809H2422.283z M2081.033,388.233
		c-12.131,0-22.033,4.438-29.365,11.293c-7.273,6.969-11.045,16.204-11.158,27.497c-0.096,11.388,3.598,20.623,10.969,27.479
		c7.406,6.818,17.461,10.283,29.896,10.283c17.635,0,29.688-9.787,33.936-13.883l-7.98-3.181c-4.17,1.752-10.873,4.799-20.242,4.799
		c-1.637,0-3.313-0.075-5.008-0.248c-16.758-1.616-23.176-14.967-23.652-21.192l-0.113-1.506h61.889l0.076-2.647
		c0.096-11.767-3.352-21.099-10.244-27.688C2103.008,392.556,2093.277,388.233,2081.033,388.233 M2059.361,418.378l0.572-1.846
		c0.703-2.248,1.752-4.324,3.086-6.113c1.35-1.791,2.969-3.332,4.816-4.59c1.924-1.314,3.961-2.285,6.246-2.951
		c2.305-0.686,4.723-1.048,7.256-1.048c11.273,0,18.451,4.952,21.289,14.739l0.533,1.809H2059.361z M1837.188,388.233
		c-12.131,0-22.033,4.438-29.369,11.293c-7.283,6.969-11.045,16.204-11.16,27.497c-0.104,11.388,3.6,20.623,10.961,27.479
		c7.402,6.818,17.477,10.283,29.91,10.283c17.635,0,29.689-9.787,33.916-13.883l-7.959-3.181
		c-4.152,1.752-10.875,4.799-20.244,4.799c-1.637,0-3.313-0.075-5.008-0.248c-16.758-1.616-23.193-14.967-23.67-21.192l-0.115-1.506
		h61.91l0.076-2.647c0.094-11.767-3.352-21.099-10.266-27.688C1859.162,392.556,1849.412,388.233,1837.188,388.233
		 M1815.516,418.378l0.572-1.846c0.705-2.248,1.732-4.324,3.084-6.113c1.334-1.791,2.953-3.332,4.818-4.59
		c1.924-1.314,3.961-2.285,6.227-2.951c2.305-0.686,4.723-1.048,7.275-1.048c11.273,0,18.453,4.952,21.289,14.739l0.553,1.809
		H1815.516z M1199.842,388.233c-12.135,0-22.027,4.438-29.367,11.293c-7.281,6.969-11.037,16.204-11.16,27.497
		c-0.1,11.388,3.604,20.623,10.959,27.479c7.416,6.818,17.477,10.283,29.908,10.283c17.637,0,29.691-9.787,33.934-13.883
		l-7.979-3.181c-4.156,1.752-10.879,4.799-20.232,4.799c-1.639,0-3.324-0.075-5.02-0.248c-16.758-1.616-23.17-14.967-23.652-21.192
		l-0.123-1.506h61.904l0.076-2.647c0.105-11.767-3.361-21.099-10.254-27.688C1221.818,392.556,1212.078,388.233,1199.842,388.233
		 M1178.172,418.378l0.58-1.846c0.701-2.248,1.732-4.324,3.076-6.113c1.342-1.791,2.961-3.332,4.816-4.59
		c1.92-1.314,3.957-2.285,6.242-2.951c2.299-0.686,4.719-1.048,7.256-1.048c11.277,0,18.457,4.952,21.299,14.739l0.539,1.809
		H1178.172z M938.164,388.233c-12.141,0-22.038,4.438-29.379,11.293c-7.274,6.969-11.031,16.204-11.155,27.497
		c-0.1,11.388,3.599,20.623,10.96,27.479c7.417,6.818,17.472,10.283,29.907,10.283c17.638,0,29.692-9.787,33.93-13.883l-7.98-3.181
		c-4.151,1.752-10.873,4.799-20.228,4.799c-1.638,0-3.323-0.075-5.018-0.248c-16.758-1.616-23.17-14.967-23.651-21.192l-0.124-1.506
		h61.899l0.081-2.647c0.105-11.767-3.361-21.099-10.255-27.688C960.129,392.556,950.393,388.233,938.164,388.233 M916.488,418.378
		l0.58-1.846c0.696-2.248,1.734-4.324,3.076-6.113c1.342-1.791,2.961-3.332,4.818-4.59c1.918-1.314,3.961-2.285,6.236-2.951
		c2.305-0.686,4.723-1.048,7.26-1.048c11.279,0,18.458,4.952,21.3,14.739l0.538,1.809H916.488z M1357.434,464.786h19.006v-49.685
		h-19.006V464.786z M1358.176,390.214h-18.244v14.473h60.5l-42.256-28.965V390.214z M1650.027,420.112
		c0.543-9.714-1.523-16.893-6.34-21.9c-5.904-6.208-16.215-9.979-31.145-9.674c-15.539,0.305-32.078,11.902-38.523,26.851
		l11.281,0.209c3.781-6.722,19.006-13.597,27.889-13.597c14.301,0,16.443,6.875,16.443,10.988c0,6.932-7.76,7.217-16.738,7.56
		c-3.875,0.172-8.273,0.325-12.559,1.01c-18.414,2.78-27.213,10.474-26.889,23.442c0.904,12.377,8.531,18.851,23.289,19.785
		c14.33-0.306,25.033-4.515,31.83-12.453l2.504-2.935v3.849c0,2.912,3.238,7.541,7.418,9.615h14.291
		c-1.828-3.562-2.752-8.228-2.752-13.939V420.112z M1631.557,430.413c-1.705,13.502-10.131,20.853-25.156,21.843
		c-5.637,0-9.445-1.105-11.605-3.371c-1.41-1.504-2.076-3.447-1.914-5.693c0-5.6,5.426-9.504,16.652-11.94
		c8.502-1.541,15.178-3.75,19.881-6.512l2.143-1.295V430.413z M1760.887,389.472c-11.234,0-19.938,4.836-25.832,14.072l-1.496,2.342
		l-1.045-2.57c-3.656-9.084-11.58-13.844-22.023-13.844c-11.18,0-21.348,7.617-25.908,13.824l-0.115,0.477v0.152l-20.414-10.893
		v71.125h20.414v-39.856c0.334-12.322,5.361-18.738,15.721-19.101c3.961,0,7.094,1.142,9.322,3.428
		c2.826,2.877,4.15,7.541,3.979,13.806v41.724h20.861v-40.295c0-15.425,8.16-18.643,15.701-18.662c3.838,0,6.941,1.142,9.131,3.409
		c2.963,2.988,4.371,7.979,4.172,14.777v40.771h20.881v-45.074C1784.234,399.374,1774.064,389.472,1760.887,389.472
		 M1479.623,379.55c-11.16,8.912-17.482,22.033-17.34,36.048c0.125,13.367,7.123,26.032,20.225,36.64
		c10.758,8.663,24.07,12.549,43.16,12.549c11.102,0,21.984-2.17,33.258-6.627v-41.627l-28.85,15.006h11.217v13.272
		c-5.715,2.231-11.57,3.427-17.082,3.427c-12.596,0-23.488-3.123-29.887-8.55c-7.322-6.305-11.303-14.892-11.197-24.241
		c0.094-8.57,4.246-17.063,12.016-24.547c6.74-6.454,19.014-10.76,30.582-10.76c0.828,0,19.32,0.152,33.201,14.188v-23.004
		c-10.691-4.438-20.574-6.418-31.934-6.418C1506.664,364.905,1492.504,369.305,1479.623,379.55"/>
	<path clip-path="url(#SVGID_2_)" stroke="#000000" stroke-miterlimit="10" d="M497.014,121.646c-8.036,0-16.491,0.634-26.384,2.047
		v-0.037l-7.113,1.119c-13.977,2.199-33.468,8.625-48.426,15.967c-10.359,4.928-20.223,10.674-29.231,16.996
		c-1.704,1.148-3.409,2.3-4.189,2.951c-0.562,0.233-1.79,0.72-2.952,2.004c-31.611,24.576-60.185,54.445-74.058,70.816l0.158,0.01
		c-1.477,1.816-2.367,4.125-2.367,6.637c0,5.576,4.342,10.138,9.809,10.548l0.036,0.116h78.968c0.482,0.067,0.97,0.114,1.47,0.114
		c3.457,0,6.536-1.677,8.477-4.255l0.063,0.008c13.14-19.442,31.812-34.387,53.768-42.955l4.571-1.553
		c12.225-4.18,24.794-6.303,37.343-6.303c63.642,0,115.496,51.706,115.553,115.252c-0.048,54.312-38.734,101.729-92.644,112.925
		c-3.428,0.687-6.894,1.199-10.427,1.58h-1.361c-3.447,0.325-6.913,0.649-10.388,0.666l-257.099,0.06
		c-93.301-5.295-166.383-82.59-166.383-175.996c0-97.209,79.209-176.285,176.595-176.285c44.736,0,87.45,16.753,120.204,47.174
		l7.56,7.451c0,0,28.783-20.805,71.506-30.236l-8.969-11.173C393.363,31.815,323.99,0,250.803,0
		C112.484,0-0.003,112.312-0.003,250.362c0,133.205,104.299,243.027,237.437,249.996c0.615,0.04,1.605,0.057,2.267,0.057
		l264.302-0.037c0.971,0,1.942-0.039,2.723-0.096c1.619-0.076,3.18-0.248,4.742-0.438l2.494-0.285
		c1.552-0.115,3.085-0.268,4.609-0.457c4.951-0.553,9.826-1.295,15.272-2.361l2.876-0.572c5.332-1.123,10.54-2.475,15.634-4.018
		l1.638-0.496c79.38-24.813,132.748-97.309,132.748-180.622C686.739,206.606,601.636,121.646,497.014,121.646"/>
</g>
<g>
	<defs>
		<rect id="SVGID_3_" x="-0.003" width="2499.085" height="500.415"/>
	</defs>
	<clipPath id="SVGID_4_">
		<use xlink:href="#SVGID_3_"  overflow="visible"/>
	</clipPath>
	<path clip-path="url(#SVGID_4_)" stroke="#000000" stroke-miterlimit="10" d="M451.444,278.374
		c-2.799-1.143-6.037-0.514-8.179,1.639l-26.194,26.146c-1.428,1.409-2.218,3.313-2.218,5.294s0.79,3.885,2.218,5.294l26.194,26.146
		c1.438,1.447,3.361,2.209,5.304,2.209c0.971,0,1.942-0.209,2.875-0.57c2.789-1.162,4.618-3.885,4.618-6.932v-52.293
		C456.063,282.278,454.233,279.536,451.444,278.374"/>
	<path clip-path="url(#SVGID_4_)" stroke="#000000" stroke-miterlimit="10" d="M502.889,231.071c-2.923-2.914-7.674-2.914-10.597,0
		l-26.194,26.166c-2.142,2.133-2.799,5.351-1.647,8.15c1.181,2.799,3.923,4.607,6.932,4.607h52.406c3.028,0,5.76-1.809,6.912-4.607
		c1.181-2.8,0.524-6.018-1.618-8.15L502.889,231.071z"/>
	<path clip-path="url(#SVGID_4_)" stroke="#000000" stroke-miterlimit="10" d="M578.108,306.158l-26.193-26.145
		c-2.171-2.134-5.37-2.782-8.189-1.62c-2.78,1.143-4.627,3.885-4.627,6.913v52.311c0,3.028,1.847,5.751,4.627,6.913
		c0.933,0.381,1.914,0.57,2.885,0.57c1.942,0,3.866-0.762,5.304-2.209l26.193-26.146C581.05,313.813,581.05,309.091,578.108,306.158
		"/>
	<path clip-path="url(#SVGID_4_)" stroke="#000000" stroke-miterlimit="10" d="M523.789,353.347h-52.406
		c-3.047,0-5.771,1.809-6.932,4.608c-1.152,2.8-0.495,6.018,1.647,8.15l26.194,26.165c1.466,1.467,3.371,2.189,5.294,2.189
		c1.923,0,3.847-0.723,5.303-2.189l26.194-26.165c2.142-2.133,2.799-5.351,1.619-8.15
		C529.548,355.155,526.816,353.347,523.789,353.347"/>
</g>
<rect x="-0.003" fill="none" width="2499.081" height="500.415"/>
</svg>
