<svg xmlns="http://www.w3.org/2000/svg" width="20" height="20" viewBox="0 0 20 20">
  <title>quanxian</title>
  <path d="M13.179,15.271a.607.607,0,0,1-.873,0l-2.089-2.136a.643.643,0,0,1,0-.894.609.609,0,0,1,.874,0l1.651,1.689,3.982-4.072a.608.608,0,0,1,.874,0,.642.642,0,0,1,0,.894ZM10,10.425c-.015,0-.028,0-.043,0A6.9,6.9,0,0,0,3.2,16.8H16.8a7.242,7.242,0,0,0-.184-1.117.6.6,0,0,1,.431-.7.585.585,0,0,1,.705.408A8.3,8.3,0,0,1,18,17.4a.593.593,0,0,1-.586.6H2.587A.594.594,0,0,1,2,17.4,8.177,8.177,0,0,1,7.577,9.6a4.224,4.224,0,0,1-1.7-3.392,4.12,4.12,0,1,1,8.237,0A4.166,4.166,0,0,1,10,10.425Zm0-7.159a2.949,2.949,0,1,0,2.883,2.949A2.92,2.92,0,0,0,10,3.265Z" style="fill: #fff;fill-rule: evenodd"/>
</svg>
