<svg xmlns="http://www.w3.org/2000/svg" width="20" height="20" viewBox="0 0 20 20">
  <title>qywx</title>
  <path d="M13.315,15.326l.019.021a.27.27,0,0,0,.039.032l.079.077a3.529,3.529,0,0,1,.972,1.811c0,.037.006.074.012.112a1.11,1.11,0,0,0,.026.121,1.151,1.151,0,1,0,1.369-1.423l-.069-.014-.07-.009a3.542,3.542,0,0,1-1.859-.979q-.057-.057-.111-.116h0a.275.275,0,0,0-.409.367" style="fill: #fb6500"/>
  <path d="M16.955,16.209l.022-.019a.286.286,0,0,0,.032-.038l.077-.079A3.541,3.541,0,0,1,18.9,15.1c.037,0,.075-.006.112-.012a1.149,1.149,0,0,0,.632-1.947,1.151,1.151,0,0,0-1.936.554c-.005.023-.01.046-.013.068s-.007.046-.01.07a3.531,3.531,0,0,1-.981,1.856q-.057.057-.116.111h0a.275.275,0,0,0,.368.408" style="fill: #0082ef"/>
  <path d="M17.84,12.576l-.019-.022a.294.294,0,0,0-.039-.032l-.08-.077a3.529,3.529,0,0,1-.972-1.811c0-.037-.006-.075-.012-.112a1.117,1.117,0,0,0-.026-.121,1.151,1.151,0,1,0-1.369,1.423l.069.014.07.01a3.543,3.543,0,0,1,1.859.979q.057.057.111.116h0a.275.275,0,0,0,.409-.367" style="fill: #2dbc00"/>
  <path d="M14.2,11.693l-.022.019a.286.286,0,0,0-.032.038l-.077.079a3.541,3.541,0,0,1-1.814.97c-.038,0-.075.006-.112.012a1.149,1.149,0,1,0,1.3,1.393c.005-.023.01-.046.013-.068s.007-.046.01-.07a3.531,3.531,0,0,1,.981-1.856q.057-.057.116-.111h0a.275.275,0,0,0-.368-.408" style="fill: #fc0"/>
  <path d="M15.911,6.078a7.049,7.049,0,0,0-1.279-1.812,8.665,8.665,0,0,0-5.263-2.5,9.391,9.391,0,0,0-2.131,0A8.675,8.675,0,0,0,1.945,4.248,7.05,7.05,0,0,0,.659,6.056,6.3,6.3,0,0,0,0,8.86a6.427,6.427,0,0,0,1.1,3.568,9.591,9.591,0,0,0,1.7,1.889l-.331,1.366-.1.385a.627.627,0,0,0-.039.119.62.62,0,0,0-.01.078.584.584,0,0,0-.006.06.633.633,0,0,0,.952.55l.009,0c.014-.008.028-.015.041-.024l2.364-1.184a9.187,9.187,0,0,0,1.546.3,9.585,9.585,0,0,0,1.044.057,9.708,9.708,0,0,0,1.089-.063,9.289,9.289,0,0,0,2.087-.487,1.165,1.165,0,0,1-.21-.094,1.148,1.148,0,0,1-.574-1.107,7.8,7.8,0,0,1-1.479.316,8.113,8.113,0,0,1-.912.053,8.034,8.034,0,0,1-.873-.048c-.061-.007-.121-.016-.181-.024a7.892,7.892,0,0,1-1.171-.245.8.8,0,0,0-.243-.037.831.831,0,0,0-.387.1c-.017.008-.033.016-.05.025L3.858,15.3h0a.137.137,0,0,1-.065.025.1.1,0,0,1-.1-.1L3.751,15l.064-.246L4.04,13.9a.681.681,0,0,0,.03-.186.61.61,0,0,0-.249-.492c-.079-.058-.158-.12-.241-.187-.127-.1-.249-.211-.366-.322A5.922,5.922,0,0,1,2.351,11.7a5.073,5.073,0,0,1-.874-2.815A4.96,4.96,0,0,1,2,6.677,5.666,5.666,0,0,1,3.029,5.228,7.173,7.173,0,0,1,7.407,3.181a7.847,7.847,0,0,1,1.786,0,7.162,7.162,0,0,1,4.352,2.057,5.646,5.646,0,0,1,1.026,1.452,4.959,4.959,0,0,1,.512,2.189c0,.079-.005.157-.009.235a1.151,1.151,0,0,1,1.413.165c.019.019.036.041.053.061.013-.161.02-.323.02-.485a6.3,6.3,0,0,0-.649-2.782" style="fill: #0082ef"/>
</svg>
