<svg xmlns="http://www.w3.org/2000/svg" width="40" height="90" viewBox="0 0 40 90">
  <title>shangxian</title>
  <g>
    <path d="M19.42,33.308l2.2-15.084H35.584l.56-3.921H22.18L23.941,2.14H19.1L14.459,33.308H1.936l-.56,3.921H36.144l.56-3.921Z" style="fill: #e3e3e3"/>
    <path d="M15.019,75.786l.52-3.281q-2.881.42-5.761.72A143.373,143.373,0,0,0,19.42,59.982H14.739q-1.14,1.86-2.521,3.841H9.577A123.474,123.474,0,0,0,16.219,51.9H11.578a108.559,108.559,0,0,1-8.2,15.124H9.938c-2.441,3.321-5.121,6.8-7.762,9.962C6.617,76.666,10.818,76.266,15.019,75.786ZM29.3,63.423l9.242-.8.52-3.6-9.8.8c.04-1.32.08-4.561.16-7.922H25.061c0,3.081-.08,6.682-.12,8.282l-5.521.48-.6,3.641,6.161-.52c.08,1.6.12,3.041.2,4.4l-8.082.68L16.5,72.5l8.962-.76c.24,2.441.56,4.561.96,6.682a32.848,32.848,0,0,1-10.363,4.121l-.92,4.481a47.45,47.45,0,0,0,12.283-4.481,51.345,51.345,0,0,0,1.76,5.361H36.1l1.52-3.561H32.663a44.683,44.683,0,0,1-1.44-4.441,40.529,40.529,0,0,0,6.762-7.522H33.223a18.926,18.926,0,0,1-2.921,3.2c-.28-1.4-.44-2.8-.6-4.2l8.882-.76.48-3.6-9.6.8C29.382,66.5,29.342,65.023,29.3,63.423Zm8.4-5.081a40.351,40.351,0,0,1-2.481-5.321H30.9a44.526,44.526,0,0,0,2.08,5.321ZM1.535,82.788l-.6,4a134.9,134.9,0,0,0,13.723-4.681l.64-3.961C10.458,79.987,5.737,81.587,1.535,82.788Z" style="fill: #e3e3e3"/>
  </g>
</svg>
