<svg xmlns="http://www.w3.org/2000/svg" width="40" height="90" viewBox="0 0 40 90">
  <title>yuyan</title>
  <g>
    <path d="M39.074,6.122l.44-3.279h-19.2l-.44,3.279h7.039a22.9,22.9,0,0,1-1.32,3.24H20.4l-2.759,19.6h4.039L24,12.561h8.878c.36,0,.52.16.48.56l-2.24,15.837h4.039l2.36-16.637c.32-2.24-.2-2.959-2.519-2.959H29.955a28.8,28.8,0,0,0,1.16-3.24ZM16.837,23.559a54.959,54.959,0,0,0,1.72-7.6c0-1.2-.72-1.4-2-1.4H12.238l-.4-.76a48.735,48.735,0,0,0,6.319-7.4A4.6,4.6,0,0,0,19,3.963c0-.92-.48-1.08-1.52-1.08h-14l1,3.4h8.159c.52,0,.6.2.32.64a35.815,35.815,0,0,1-2.8,3.6l-1.08-2.44H4.839c.92,2.08,2.08,4.439,3.159,6.479H2.48l-.44,3.4H7.519L5.4,34.318H1.04l.8,3.519H9.2l2.48-19.877h1.84c.36,0,.52.08.52.44a34.031,34.031,0,0,1-1.44,5.159Zm10.2,5.919c1.68-3.12,2.679-9.158,3.439-15.237H26.436c-.56,5.479-1.48,11.838-3.359,14.918A29.159,29.159,0,0,1,13.6,37.837h6.039a26.648,26.648,0,0,0,7.2-7.959,87.547,87.547,0,0,0,4.079,7.959h4.959a58.9,58.9,0,0,1-5.119-8.359Z" style="fill: #e3e3e3"/>
    <path d="M38.514,56.2l.52-3.6h-19.4l-.48,3.6h3.559c-.44,3.2-1,6.6-1.68,10.238H16.717l-.48,3.6h4.079a53.354,53.354,0,0,1-6.959,17.837H18.4A67.477,67.477,0,0,0,24.476,70.04h4.639l-2.6,17.837h4.239L33.315,70.04h4.319l.52-3.6H33.795L35.274,56.2ZM13.078,65.041H9.119a82.431,82.431,0,0,0,3.2-7.679h5.439l.48-3.4H4.48L4,57.362H8.159A67.318,67.318,0,0,1,.84,72.6H3.68L1.8,84.8H13.2l2.32-16.557C15.878,65.761,15.558,65.041,13.078,65.041Zm16.557,1.4H25.156c.64-3.519,1.2-6.919,1.68-10.238h4.279Zm-18.2,2.44L9.679,81.4H6.319L8.279,68.32H11C11.438,68.32,11.478,68.48,11.438,68.88Z" style="fill: #e3e3e3"/>
  </g>
</svg>
